<?xml version="1.0" standalone="no"?>
<!DOCTYPE svg PUBLIC "-//W3C//DTD SVG 20010904//EN"
 "http://www.w3.org/TR/2001/REC-SVG-20010904/DTD/svg10.dtd">
<svg version="1.0" xmlns="http://www.w3.org/2000/svg"
 width="300.000000pt" height="283.000000pt" viewBox="0 0 300.000000 283.000000"
 preserveAspectRatio="xMidYMid meet">
<metadata>
Created by potrace 1.10, written by Peter Selinger 2001-2011
</metadata>
<g transform="translate(0.000000,283.000000) scale(0.050000,-0.050000)"
fill="#000000" stroke="none">
<path d="M3061 5502 c-40 -11 -24 -18 79 -37 125 -23 299 -111 315 -159 6 -18
-9 -19 -59 -5 -463 133 -1213 -159 -1478 -577 -86 -136 -72 -134 77 13 124
122 296 241 395 274 22 8 -17 -43 -87 -112 -202 -199 -353 -403 -476 -642
-148 -291 -304 -464 -442 -492 l-95 -19 76 -34 c42 -18 141 -40 220 -48 l144
-16 -70 -44 c-60 -38 -124 -65 -280 -119 -32 -11 28 -31 166 -54 41 -7 70 -21
64 -30 -5 -10 1 -22 15 -28 26 -11 7 -32 -78 -87 -31 -20 -19 -24 75 -25 128
-1 145 -11 116 -65 -28 -53 -16 -61 48 -31 30 14 54 40 54 58 0 24 29 40 102
56 57 12 130 41 164 65 l60 43 -12 -63 c-7 -34 -5 -67 5 -73 39 -25 47 -212
10 -239 -24 -18 -31 -38 -20 -64 12 -32 19 -27 45 36 35 88 53 78 132 -75 l51
-99 -9 130 c-12 170 25 96 44 -90 23 -221 -42 -371 -134 -313 -21 13 -55 23
-76 23 -58 0 -147 84 -253 240 -53 77 -98 138 -100 135 -30 -40 -23 -215 8
-188 50 45 58 42 73 -29 8 -34 31 -79 51 -99 20 -20 43 -71 51 -113 8 -42 31
-107 51 -146 20 -38 37 -107 37 -153 l0 -84 -135 40 c-373 110 -716 125 -892
39 -113 -55 -132 -43 -133 88 0 98 -66 216 -116 206 -19 -4 -63 -65 -101 -141
-74 -150 -101 -163 -163 -75 -96 135 -244 -23 -236 -252 4 -111 -119 -150
-244 -78 -104 60 -100 100 -100 -960 l0 -990 3000 0 3000 0 0 640 0 640 -79 0
c-69 0 -84 -9 -111 -60 -17 -33 -40 -61 -51 -63 -10 -1 -62 -4 -114 -6 -52 -2
-119 -11 -148 -19 -47 -14 -60 -5 -116 76 -77 112 -134 120 -209 30 -29 -33
-52 -71 -52 -82 0 -14 -23 -16 -65 -6 -36 9 -89 15 -118 14 -65 -3 -90 24
-167 183 -68 139 -124 167 -179 89 -227 -326 -261 -351 -277 -201 -9 90 -56
235 -155 485 -24 61 -45 126 -46 145 -1 24 -12 32 -32 24 -18 -7 -13 5 12 29
24 22 46 50 51 63 4 12 40 24 80 26 61 3 69 -1 50 -25 -20 -24 -17 -25 20 -5
24 13 50 34 58 46 9 15 5 18 -14 8 -15 -8 16 27 71 77 112 104 121 107 151 52
33 -61 60 -48 60 30 0 89 3 88 127 -20 100 -88 137 -93 94 -12 -39 74 -12 321
40 353 11 6 53 -14 94 -46 129 -100 175 -104 107 -8 -88 124 -93 203 -20 344
36 71 85 196 109 278 58 196 108 203 109 16 0 -30 9 -55 20 -55 12 0 20 77 20
190 0 113 8 190 20 190 11 0 20 -15 20 -34 0 -41 211 -246 252 -246 17 0 -6
43 -60 108 -94 117 -189 336 -242 563 -61 261 -95 379 -124 437 -24 46 -25 55
-3 46 203 -89 303 -120 406 -127 l121 -8 -106 31 c-196 55 -371 178 -674 471
-463 448 -734 599 -1074 599 -161 0 -182 41 -74 142 56 52 77 58 195 59 121 0
130 3 94 30 -101 76 -356 4 -489 -138 l-48 -52 -98 89 c-128 115 -243 149
-375 112z m1097 -1262 c101 -66 189 -136 196 -155 7 -19 26 -52 44 -72 32 -38
50 -632 20 -662 -7 -6 -61 11 -120 38 -69 33 -144 51 -207 51 -113 0 -102 -22
29 -55 50 -12 132 -46 184 -75 l93 -52 -30 -104 c-55 -184 -57 -185 -153 -107
-139 112 -194 134 -264 102 l-60 -26 63 10 c76 13 127 -12 250 -127 l95 -90
44 42 c62 57 70 39 29 -69 -43 -111 -35 -123 40 -65 53 42 55 42 39 5 -9 -21
-18 -64 -19 -94 -1 -73 -13 -70 -128 32 -185 164 -411 261 -453 193 -7 -11 5
-20 26 -20 41 0 40 -96 -2 -123 -22 -14 -1 -57 28 -57 11 0 15 9 8 20 -7 11
-2 20 11 20 13 0 18 -13 12 -29 -7 -19 13 -46 53 -74 35 -24 84 -67 108 -95
25 -29 45 -44 45 -34 1 11 -14 35 -32 56 -31 34 -31 39 8 81 22 25 44 61 48
80 6 29 24 20 102 -47 111 -95 113 -103 40 -138 -53 -25 -54 -26 -11 -38 42
-12 43 -14 10 -57 -48 -63 -176 -24 -346 103 -68 51 -181 125 -251 164 -70 39
-127 79 -127 89 0 10 -12 13 -26 8 -14 -6 -58 3 -97 19 -38 16 -132 40 -208
52 -190 30 -660 179 -709 224 -28 27 -40 62 -38 122 0 46 6 73 11 59 23 -57
41 -19 32 71 -10 100 57 391 104 456 21 29 27 16 36 -88 7 -74 33 -167 67
-238 l57 -116 5 100 c10 188 29 310 47 310 11 0 20 -20 21 -45 1 -35 6 -30 20
20 41 140 91 85 104 -114 10 -166 49 -305 69 -246 12 37 61 31 138 -17 37 -23
67 -32 67 -20 0 26 -71 65 -150 82 -69 14 -78 94 -28 247 l28 83 22 -130 22
-130 15 105 c24 159 94 138 141 -42 28 -106 123 -314 102 -223 -36 159 -31
176 18 61 55 -131 105 -197 82 -111 -26 98 -38 320 -18 320 11 0 25 65 32 145
6 80 29 199 51 265 l39 120 2 -182 c2 -193 69 -410 190 -617 66 -112 108 -141
55 -37 -111 218 -142 549 -72 776 l37 120 16 -170 c9 -93 29 -215 46 -270 20
-68 26 -78 19 -30 -91 585 -66 634 229 440z m-1107 -95 c-15 -52 -33 -129 -40
-170 -8 -46 -24 -75 -42 -75 -36 0 -36 15 -1 112 79 218 130 300 83 133z m240
-341 c-49 -48 -74 57 -38 159 l37 107 6 -127 c3 -70 1 -133 -5 -139z m-1301
-424 c-19 -31 -130 -84 -130 -62 0 33 61 82 103 82 21 0 34 -9 27 -20z m345
-1190 c269 -535 589 -888 783 -862 l95 12 -26 -125 c-14 -69 -26 -181 -27
-250 0 -152 -5 -152 -163 -18 -70 59 -226 162 -347 229 -121 66 -310 171 -420
232 -110 62 -209 115 -220 119 -11 3 4 51 33 105 77 140 132 371 149 621 11
170 18 206 33 167 11 -28 60 -131 110 -230z m513 213 c6 -10 -7 -34 -28 -53
-39 -35 -40 -35 -40 4 0 59 43 90 68 49z m83 -84 c12 -21 -49 -107 -65 -91 -4
4 -2 31 5 60 14 54 38 67 60 31z m95 -158 c-68 -95 -74 -91 -45 26 21 82 28
90 62 71 37 -19 36 -23 -17 -97z m-106 -62 l-23 -85 -43 43 -42 42 59 62 c68
71 80 55 49 -62z m280 53 c0 -14 -27 -50 -59 -81 l-59 -57 21 78 c12 43 25 84
30 92 13 21 67 -5 67 -32z m140 -35 c0 -24 -78 -157 -92 -157 -8 0 3 62 25
145 11 38 67 49 67 12z m-303 -93 c-20 -77 -51 -104 -83 -71 -7 7 12 46 42 88
65 91 68 91 41 -17z m450 61 c5 -9 -12 -52 -39 -95 -43 -72 -48 -75 -48 -30 1
110 51 182 87 125z m-278 -100 c-20 -120 -36 -137 -99 -109 l-52 24 74 91 c85
104 94 103 77 -6z m431 76 c0 -21 -80 -161 -92 -161 -4 0 -8 41 -8 90 0 83 4
90 50 90 28 0 50 -8 50 -19z m117 -66 c-38 -53 -48 -58 -53 -29 -11 57 11 94
57 94 42 0 42 0 -4 -65z m-406 -86 c-10 -56 -22 -69 -62 -69 -62 0 -61 6 6
101 60 83 76 74 56 -32z m136 -8 c-7 -35 -25 -69 -41 -75 -49 -19 -52 10 -6
84 52 84 65 82 47 -9z m154 12 c-11 -29 -34 -53 -51 -53 -25 0 -23 11 13 60
52 70 66 67 38 -7z m179 -250 c0 -10 -26 -50 -58 -90 -32 -40 -63 -104 -71
-143 -16 -87 -23 -87 -137 0 -50 39 -101 70 -113 70 -35 0 -24 43 14 53 19 5
98 35 175 67 149 61 190 70 190 43z"/>
<path d="M2616 3405 c-23 -10 -29 -24 -18 -42 12 -19 21 -21 31 -5 28 45 195
27 171 -18 -12 -23 -16 -51 -8 -63 7 -12 1 -29 -14 -38 -45 -28 2 -55 132 -76
129 -20 149 -11 150 72 0 54 14 56 64 12 20 -18 42 -28 48 -21 7 6 -16 29 -51
51 -41 24 -55 42 -38 48 42 15 -180 76 -313 86 -66 5 -135 2 -154 -6z"/>
<path d="M1943 3060 c-1 -27 12 -77 27 -110 l28 -60 -12 60 c-7 33 -19 83 -28
110 l-15 50 0 -50z"/>
<path d="M2052 2968 c-22 -58 -12 -106 27 -127 60 -32 75 -25 23 12 -36 25
-44 44 -34 90 12 62 4 76 -16 25z"/>
</g>
</svg>
